<svg width="322" height="322" viewBox="0 0 322 322" fill="none" xmlns="http://www.w3.org/2000/svg">
<path d="M268.948 45.6592C285.747 41.4623 279.447 88.6778 274.198 112.81C274.198 130.647 215.404 82.3824 209.105 73.9885C202.806 65.5947 247.951 50.9054 268.948 45.6592Z" fill="#F154EB"/>
<path d="M50.7882 45.6592C33.9901 41.4623 40.2894 88.6778 45.5388 112.81C45.5388 130.647 104.332 82.3824 110.632 73.9885C116.931 65.5947 71.786 50.9054 50.7882 45.6592Z" fill="#F154EB"/>
<path d="M56.5535 63.3983C45.8637 60.7276 49.8724 90.7738 53.2129 106.131C53.2129 117.482 90.6271 86.7676 94.6357 81.4261C98.6444 76.0845 69.9157 66.7368 56.5535 63.3983Z" fill="#2DCADF"/>
<path d="M261.81 65.0137C272.118 62.4383 268.252 91.4115 265.031 106.22C265.031 117.165 228.953 87.5484 225.087 82.3976C221.222 77.2468 248.925 68.233 261.81 65.0137Z" fill="#2DCADF"/>
<path fill-rule="evenodd" clip-rule="evenodd" d="M103.916 258.261C82.8521 253.946 66.106 243.577 54.5827 228.77C42.8552 213.7 36.6483 194.178 36.6483 172.085C36.6483 136.87 53.633 114.113 76.3706 95.6577C99.0504 77.2497 127.399 70.5273 161.624 70.5273C195.8 70.5273 221.072 72.417 243.366 89.9831C265.736 107.609 284.71 133.507 284.71 168.707C284.71 203.743 273.987 225.75 259.744 239.438C246.677 251.997 230.896 257.313 218.443 259.501C217.53 266.015 215.09 270.51 211.89 273.281C208.338 276.357 204.05 277.114 200.622 276.257C195.451 274.964 191.72 271.785 189.374 268.065C188.908 269.315 188.336 270.559 187.547 271.719C185.317 274.998 181.746 277.055 175.645 277.927C170.029 278.729 166.099 276.135 163.649 272.777C162.824 271.647 162.157 270.422 161.624 269.19C160.407 271.336 159.169 273.124 157.671 274.483C154.786 277.101 151.222 277.951 146.118 277.951C141.28 277.951 137.795 275.485 135.5 272.562C134.467 271.246 133.651 269.813 133.027 268.41C130.851 270.76 128.53 272.474 125.987 273.576C122.258 275.191 118.31 275.377 114.102 274.675C110.321 274.045 107.963 270.958 106.504 267.737C105.239 264.943 104.427 261.582 103.916 258.261Z" fill="white"/>
<mask id="path-6-inside-1_201_2" fill="white">
<path fill-rule="evenodd" clip-rule="evenodd" d="M75.383 98.707C53.713 116.295 40.2697 142.324 40.2697 176.243C40.2697 197.504 46.2361 216.028 57.2697 230.206C68.295 244.373 84.4715 254.322 105.122 258.301L104.365 262.229C82.8416 258.082 65.781 247.656 54.113 232.662C42.4531 217.68 36.2697 198.255 36.2697 176.243C36.2697 141.154 50.2287 113.972 72.8622 95.6013C95.4482 77.2694 126.529 67.8213 160.679 67.8213C194.788 67.8213 225.466 76.4044 247.663 93.894C269.921 111.432 283.467 137.788 283.467 172.865C283.467 207.807 272.777 229.692 258.635 243.285C244.543 256.828 227.264 261.905 214.464 263.725L213.901 259.765C226.232 258.011 242.595 253.152 255.863 240.4C269.08 227.698 279.467 206.931 279.467 172.865C279.467 138.933 266.421 113.767 245.187 97.0358C223.891 80.2558 194.175 71.8213 160.679 71.8213C127.224 71.8213 97.1004 81.0801 75.383 98.707Z"/>
</mask>
<path fill-rule="evenodd" clip-rule="evenodd" d="M75.383 98.707C53.713 116.295 40.2697 142.324 40.2697 176.243C40.2697 197.504 46.2361 216.028 57.2697 230.206C68.295 244.373 84.4715 254.322 105.122 258.301L104.365 262.229C82.8416 258.082 65.781 247.656 54.113 232.662C42.4531 217.68 36.2697 198.255 36.2697 176.243C36.2697 141.154 50.2287 113.972 72.8622 95.6013C95.4482 77.2694 126.529 67.8213 160.679 67.8213C194.788 67.8213 225.466 76.4044 247.663 93.894C269.921 111.432 283.467 137.788 283.467 172.865C283.467 207.807 272.777 229.692 258.635 243.285C244.543 256.828 227.264 261.905 214.464 263.725L213.901 259.765C226.232 258.011 242.595 253.152 255.863 240.4C269.08 227.698 279.467 206.931 279.467 172.865C279.467 138.933 266.421 113.767 245.187 97.0358C223.891 80.2558 194.175 71.8213 160.679 71.8213C127.224 71.8213 97.1004 81.0801 75.383 98.707Z" fill="white"/>
<path d="M75.383 98.707L72.232 94.8248L72.232 94.8248L75.383 98.707ZM57.2697 230.206L61.2156 227.135L61.2156 227.135L57.2697 230.206ZM105.122 258.301L110.032 259.247L110.978 254.337L106.068 253.391L105.122 258.301ZM104.365 262.229L103.419 267.138L108.329 268.085L109.275 263.175L104.365 262.229ZM54.113 232.662L50.167 235.733L50.167 235.733L54.113 232.662ZM72.8622 95.6013L76.0132 99.4834L76.0132 99.4834L72.8622 95.6013ZM247.663 93.894L250.757 89.9666L250.757 89.9666L247.663 93.894ZM258.635 243.285L262.099 246.89L262.099 246.89L258.635 243.285ZM214.464 263.725L209.514 264.429L210.218 269.379L215.168 268.675L214.464 263.725ZM213.901 259.765L213.197 254.815L208.247 255.519L208.951 260.469L213.901 259.765ZM255.863 240.4L259.327 244.006L259.327 244.006L255.863 240.4ZM245.187 97.0358L242.093 100.963L242.093 100.963L245.187 97.0358ZM45.2697 176.243C45.2697 143.785 58.0683 119.2 78.5339 102.589L72.232 94.8248C49.3577 113.391 35.2697 140.862 35.2697 176.243H45.2697ZM61.2156 227.135C50.9647 213.963 45.2697 196.566 45.2697 176.243H35.2697C35.2697 198.443 41.5075 218.093 53.3238 233.277L61.2156 227.135ZM106.068 253.391C86.509 249.623 71.4376 240.27 61.2156 227.135L53.3238 233.277C65.1525 248.476 82.434 259.021 104.176 263.211L106.068 253.391ZM109.275 263.175L110.032 259.247L100.212 257.355L99.4556 261.283L109.275 263.175ZM50.167 235.733C62.6386 251.759 80.8043 262.781 103.419 267.138L105.311 257.319C84.8788 253.382 68.9235 243.553 58.0589 229.592L50.167 235.733ZM31.2697 176.243C31.2697 199.193 37.7244 219.744 50.167 235.733L58.0589 229.592C47.1819 215.615 41.2697 197.317 41.2697 176.243H31.2697ZM69.7112 91.7191C45.8733 111.067 31.2697 139.693 31.2697 176.243H41.2697C41.2697 142.616 54.5841 116.876 76.0132 99.4834L69.7112 91.7191ZM160.679 62.8213C125.661 62.8213 93.383 72.5059 69.7112 91.7191L76.0132 99.4834C97.5134 82.0328 127.398 72.8213 160.679 72.8213V62.8213ZM250.757 89.9666C227.435 71.5901 195.555 62.8213 160.679 62.8213V72.8213C194.021 72.8213 223.497 81.2187 244.568 97.8213L250.757 89.9666ZM288.467 172.865C288.467 136.358 274.297 108.515 250.757 89.9666L244.568 97.8213C265.546 114.35 278.467 139.218 278.467 172.865H288.467ZM262.099 246.89C277.399 232.185 288.467 208.901 288.467 172.865H278.467C278.467 206.712 268.155 227.2 255.17 239.679L262.099 246.89ZM215.168 268.675C228.553 266.772 246.977 261.423 262.099 246.89L255.17 239.679C242.108 252.233 225.974 257.038 213.76 258.775L215.168 268.675ZM208.951 260.469L209.514 264.429L219.414 263.021L218.851 259.061L208.951 260.469ZM252.398 236.795C240.16 248.557 224.942 253.144 213.197 254.815L214.605 264.715C227.522 262.878 245.03 257.747 259.327 244.006L252.398 236.795ZM274.467 172.865C274.467 205.835 264.458 225.205 252.398 236.795L259.327 244.006C273.701 230.191 284.467 208.026 284.467 172.865H274.467ZM242.093 100.963C262.046 116.685 274.467 140.363 274.467 172.865H284.467C284.467 137.502 270.796 110.849 248.282 93.1085L242.093 100.963ZM160.679 76.8213C193.407 76.8213 221.922 85.0699 242.093 100.963L248.282 93.1085C225.86 75.4416 194.942 66.8213 160.679 66.8213V76.8213ZM78.5339 102.589C99.1658 85.8433 128.093 76.8213 160.679 76.8213V66.8213C126.355 66.8213 95.035 76.3168 72.232 94.8248L78.5339 102.589Z" fill="black" mask="url(#path-6-inside-1_201_2)"/>
<path d="M46.6661 171.548L27.7786 170.853C28.7582 113.903 87.513 64.7314 160.679 64.7314C233.847 64.7314 292.903 113.903 293.892 170.846L271.763 171.555C271.361 144.035 260.243 120.765 241.064 104.307C221.545 87.5573 193.777 77.9446 160.679 77.9446C127.583 77.9446 99.0945 87.5557 78.8503 104.289C58.9588 120.731 47.0964 143.999 46.6661 171.548Z" fill="#F154EB" stroke="#2DCADF" stroke-width="3"/>
<path d="M269.591 229.351C267.677 229.185 265.889 228.973 264.72 228.78L271.53 144.49C272.557 144.364 274.034 144.413 275.769 144.577C277.543 144.744 279.462 145.017 281.237 145.269C281.578 145.317 281.914 145.365 282.242 145.411L282.276 145.415L282.31 145.418C290.693 146.015 298.036 151.168 303.105 159.179C308.174 167.19 310.923 178.002 310.088 189.713C309.254 201.423 305.001 211.736 298.847 218.947C292.693 226.159 284.694 230.219 276.311 229.622L276.252 229.618L276.194 229.62C274.609 229.694 272.05 229.565 269.591 229.351ZM263.408 213.855C263.677 212.283 263.99 210.617 264.322 208.866L262.92 226.228C262.674 225.365 262.534 224.374 262.488 223.242C262.385 220.676 262.776 217.539 263.408 213.855Z" fill="#F154EB" stroke="#2DCADF" stroke-width="2"/>
<path d="M50.4365 226.109C52.3504 225.942 54.1387 225.73 55.3074 225.538L48.4979 141.247C47.4703 141.122 45.993 141.171 44.2585 141.334C42.4845 141.502 40.5659 141.774 38.7907 142.026C38.4496 142.074 38.1137 142.122 37.7852 142.168L37.7515 142.173L37.7176 142.175C29.3348 142.772 21.9915 147.926 16.9222 155.937C11.853 163.948 9.10467 174.759 9.93899 186.47C10.7733 198.181 15.0267 208.493 21.1803 215.705C27.3342 222.916 35.3338 226.976 43.7166 226.379L43.7752 226.375L43.834 226.378C45.4186 226.451 47.9775 226.322 50.4365 226.109ZM56.6199 210.613C56.3503 209.041 56.0375 207.375 55.7051 205.623L57.1077 222.985C57.3531 222.123 57.4939 221.131 57.5395 220C57.6429 217.434 57.2519 214.297 56.6199 210.613Z" fill="#F154EB" stroke="#2DCADF" stroke-width="2"/>
<path d="M50.4365 226.109C52.3504 225.942 54.1387 225.73 55.3074 225.538L48.4979 141.247C47.4703 141.122 45.993 141.171 44.2585 141.334C42.4845 141.502 40.5659 141.774 38.7907 142.026C38.4496 142.074 38.1137 142.122 37.7852 142.168L37.7515 142.173L37.7176 142.175C29.3348 142.772 21.9915 147.926 16.9222 155.937C11.853 163.948 9.10467 174.759 9.93899 186.47C10.7733 198.181 15.0267 208.493 21.1803 215.705C27.3342 222.916 35.3338 226.976 43.7166 226.379L43.7752 226.375L43.834 226.378C45.4186 226.451 47.9775 226.322 50.4365 226.109ZM56.6199 210.613C56.3503 209.041 56.0375 207.375 55.7051 205.623L57.1077 222.985C57.3531 222.123 57.4939 221.131 57.5395 220C57.6429 217.434 57.2519 214.297 56.6199 210.613Z" fill="#F154EB" stroke="#2DCADF" stroke-width="2"/>
<circle cx="207.697" cy="200.232" r="26.7517" fill="black"/>
<circle cx="113.661" cy="200.232" r="26.7517" fill="black"/>
<path d="M104.774 249.683C104.504 258.059 105.909 275.137 113.691 276.434C121.474 277.731 127.473 275.624 133.147 267.517C133.958 271.841 137.498 279.677 145.307 279.677C155.004 279.677 156.656 276.434 161.52 266.706C162.061 271.57 165.411 280.974 174.491 279.677C185.84 278.056 185.84 272.381 188.272 265.085C189.353 270.49 193.367 276.297 200.401 278.056C206.886 279.677 218.266 274.002 215.024 249.683" stroke="black" stroke-width="4" stroke-miterlimit="11.4737" stroke-linecap="round"/>
<path d="M173.903 235.543C170.639 243.534 163.929 238.872 160.982 235.543C157.922 242.722 150.782 239.288 148.741 234.294C147.109 230.299 154.862 224.513 158.942 222.12C165.289 223.265 177.167 227.552 173.903 235.543Z" fill="black"/>
<path d="M124.199 222.931C121.605 195.693 109.067 187.802 103.122 187.262C116.741 187.262 116.093 175.913 116.093 168.617C116.741 179.642 126.902 184.019 133.117 184.83C123.389 184.83 123.119 210.23 124.199 222.931Z" fill="white"/>
<path d="M219.857 221.31C217.263 194.072 204.725 186.181 198.78 185.641C212.399 185.641 211.75 174.292 211.75 166.996C212.399 178.021 222.559 182.398 228.774 183.209C219.046 183.209 218.776 208.609 219.857 221.31Z" fill="white"/>
</svg>
